<?xml version="1.0" encoding="utf-8"?>
<!-- Generator: Adobe Illustrator 16.0.0, SVG Export Plug-In . SVG Version: 6.00 Build 0)  -->
<!DOCTYPE svg PUBLIC "-//W3C//DTD SVG 1.1//EN" "http://www.w3.org/Graphics/SVG/1.1/DTD/svg11.dtd">
<svg version="1.1" id="Capa_1" xmlns="http://www.w3.org/2000/svg" xmlns:xlink="http://www.w3.org/1999/xlink" x="0px" y="0px"
	 width="150px" height="150px" viewBox="0 0 150 150" enable-background="new 0 0 150 150" xml:space="preserve">
<g>
	<g>
		<path d="M128.033,21.967C113.867,7.801,95.033,0,75,0C54.966,0,36.132,7.801,21.967,21.967S0,54.967,0,75
			s7.801,38.867,21.967,53.033S54.967,150,75,150s38.867-7.801,53.033-21.967S150,95.033,150,75S142.199,36.133,128.033,21.967z
			 M119.52,52.222l-52.076,53.487c-1.066,1.095-2.463,1.643-3.861,1.643c-1.397,0-2.795-0.548-3.861-1.643L30.48,75.676
			c-2.132-2.19-2.132-5.741,0-7.931c2.132-2.19,5.589-2.19,7.722,0l25.381,26.068l48.215-49.521c2.132-2.19,5.589-2.19,7.722,0
			C121.651,46.481,121.651,50.032,119.52,52.222z"/>
	</g>
</g>
</svg>
